<svg width="199" height="155" viewBox="0 0 199 155" fill="none" xmlns="http://www.w3.org/2000/svg">
<g clip-path="url(#clip0_1_131)">
<path d="M17.1399 39.8329C16.7974 40.0344 16.4072 40.1407 16.0098 40.1407C15.6124 40.1407 15.2222 40.0344 14.8796 39.8329C14.1602 39.4127 13.1478 38.9033 12.0782 38.3621C10.342 37.5722 8.68359 36.6215 7.12465 35.5224C5.13677 33.8811 3.49163 31.8643 2.28317 29.5872C1.0747 27.3101 0.326582 24.8173 0.0815179 22.2511C-0.163546 19.6848 0.0992451 17.0955 0.854888 14.6308C1.61053 12.1661 2.84423 9.87444 4.48554 7.88656C6.12685 5.89867 8.14363 4.25353 10.4207 3.04507C12.6978 1.83661 15.1907 1.08848 17.7569 0.84342C20.3231 0.598355 22.9125 0.861147 25.3772 1.61679C27.8418 2.37243 30.1335 3.60613 32.1214 5.24744C33.3872 6.46585 34.5282 7.80743 35.5278 9.25227L36.0307 9.88897C36.3955 10.3609 36.5578 10.9585 36.482 11.5501C36.4062 12.1418 36.0984 12.6791 35.6264 13.0438C35.1545 13.4086 34.5569 13.5709 33.9653 13.495C33.3736 13.4192 32.8363 13.1115 32.4716 12.6395L31.9304 11.9264C31.1307 10.7805 30.2475 9.69519 29.2881 8.67924C27.7509 7.41043 25.9788 6.45681 24.0731 5.87284C22.1673 5.28887 20.1652 5.08599 18.181 5.27577C16.1969 5.46556 14.2695 6.04429 12.509 6.97894C10.7485 7.91358 9.18934 9.18583 7.92053 10.723C6.65171 12.2603 5.69809 14.0323 5.11412 15.9381C4.53015 17.8438 4.32727 19.846 4.51705 21.8301C4.70684 23.8143 5.28557 25.7416 6.22022 27.5021C7.15486 29.2626 8.42711 30.8218 9.96433 32.0906C11.2805 32.9584 12.6596 33.7267 14.0901 34.3891C15.2235 34.9621 16.2931 35.5033 17.1335 35.9936C17.4632 36.1917 17.7359 36.4717 17.9253 36.8064C18.1146 37.1411 18.2142 37.5191 18.2142 37.9037C18.2142 38.2882 18.1146 38.6663 17.9253 39.001C17.7359 39.3357 17.4632 39.6157 17.1335 39.8138L17.1399 39.8329Z" fill="#F1B436"/>
<path d="M24.1118 27.0353C22.3902 28.0517 20.3503 28.3858 18.3944 27.9717C16.4386 27.5576 14.7091 26.4255 13.5471 24.7987C12.3852 23.1718 11.8753 21.1686 12.118 19.1842C12.3608 17.1998 13.3385 15.3785 14.8584 14.0797C16.3782 12.781 18.3297 12.0991 20.3276 12.1687C22.3256 12.2383 24.2248 13.0543 25.6506 14.4557C27.0764 15.857 27.9251 17.7419 28.0292 19.7384C28.1333 21.7348 27.4852 23.6978 26.2129 25.2398C25.6218 25.9555 24.9109 26.5631 24.1118 27.0353ZM18.2605 17.1156C17.6144 17.4964 17.1065 18.0733 16.8106 18.7625C16.5147 19.4516 16.4461 20.2172 16.6149 20.948C16.7837 21.6787 17.181 22.3367 17.7492 22.8263C18.3173 23.3159 19.0268 23.6116 19.7744 23.6706C20.5221 23.7296 21.2691 23.5487 21.907 23.1542C22.5449 22.7597 23.0404 22.1722 23.3217 21.4769C23.6029 20.7816 23.6552 20.0148 23.471 19.2878C23.2868 18.5607 22.8756 17.9113 22.2972 17.4339C21.7393 16.971 21.052 16.692 20.3293 16.635C19.6066 16.578 18.884 16.7459 18.2605 17.1156ZM46.549 57.0747C46.2065 57.2763 45.8163 57.3826 45.4189 57.3826C45.0214 57.3826 44.6313 57.2763 44.2887 57.0747L12.3711 38.3685C11.8577 38.0671 11.4851 37.5741 11.3353 36.998C11.2611 36.7127 11.2438 36.4156 11.2844 36.1237C11.325 35.8317 11.4227 35.5507 11.572 35.2965C11.7212 35.0423 11.9191 34.82 12.1543 34.6423C12.3894 34.4646 12.6573 34.3349 12.9425 34.2607C13.5187 34.1108 14.1307 34.196 14.6441 34.4974L46.5426 53.2354C46.8723 53.4335 47.145 53.7135 47.3344 54.0482C47.5237 54.383 47.6233 54.761 47.6233 55.1455C47.6233 55.5301 47.5237 55.9081 47.3344 56.2428C47.145 56.5775 46.8723 56.8575 46.5426 57.0556L46.549 57.0747ZM59.977 41.2655C59.4683 41.5601 58.8734 41.6697 58.2932 41.5757C57.713 41.4818 57.1831 41.1899 56.7935 40.7498L32.3506 12.9643C31.939 12.4532 31.7405 11.803 31.7966 11.1491C31.8527 10.4953 32.159 9.88835 32.6516 9.45483C33.1442 9.0213 33.7852 8.79467 34.4409 8.82219C35.0965 8.8497 35.7162 9.12924 36.1708 9.60252L60.6009 37.388C60.8481 37.6708 61.0297 38.0046 61.1326 38.3658C61.2356 38.7269 61.2575 39.1063 61.1966 39.4769C61.1358 39.8474 60.9937 40.1999 60.7807 40.5092C60.5676 40.8184 60.2888 41.0767 59.9642 41.2655H59.977Z" fill="#F1B436"/>
<path d="M121.259 151.51C117.764 153.57 113.72 154.506 109.676 154.189C105.631 153.872 101.782 152.319 98.65 149.74L36.2918 98.2755C32.2544 94.9438 29.7058 90.1447 29.2067 84.9339C28.7076 79.7232 30.2988 74.5275 33.6304 70.49L46.3962 55.0182C46.8437 54.5607 47.4471 54.2884 48.0863 54.2557C48.7255 54.2229 49.3536 54.4319 49.8456 54.8413C50.3377 55.2506 50.6575 55.8302 50.7415 56.4647C50.8256 57.0992 50.6676 57.7421 50.2991 58.2654L37.5652 73.7308C35.0914 76.7248 33.9083 80.5788 34.2761 84.4451C34.6438 88.3113 36.5323 91.8732 39.5262 94.3471L101.923 145.818C103.406 147.042 105.116 147.962 106.955 148.525C108.793 149.089 110.725 149.284 112.64 149.101C114.554 148.918 116.414 148.359 118.112 147.457C119.811 146.555 121.315 145.327 122.539 143.844L161.849 96.2126C163.073 94.7293 163.993 93.0195 164.556 91.1807C165.119 89.3419 165.315 87.4101 165.132 85.4957C164.948 83.5812 164.39 81.7217 163.488 80.0231C162.586 78.3246 161.358 76.8204 159.875 75.5963L146.861 64.8552C146.596 64.6448 146.375 64.3836 146.212 64.0869C146.049 63.7903 145.947 63.4641 145.911 63.1275C145.876 62.7908 145.908 62.4505 146.005 62.1263C146.103 61.8022 146.264 61.5007 146.479 61.2396C146.695 60.9785 146.96 60.7629 147.26 60.6055C147.559 60.4481 147.888 60.3521 148.225 60.3229C148.562 60.2938 148.902 60.3322 149.224 60.4359C149.546 60.5396 149.845 60.7065 150.102 60.9268L163.116 71.6679C167.145 75.0038 169.685 79.8027 170.178 85.0101C170.671 90.2176 169.077 95.4078 165.745 99.4407L126.436 147.072C124.982 148.842 123.23 150.343 121.259 151.51ZM110.461 32.6638C110.01 32.9298 109.488 33.0506 108.967 33.0095C108.445 32.9685 107.948 32.7678 107.545 32.4345L97.4785 24.1575C95.9952 22.9333 94.2854 22.0133 92.4465 21.45C90.6077 20.8867 88.6759 20.6911 86.7615 20.8744C84.8471 21.0576 82.9875 21.6162 81.289 22.5182C79.5905 23.4202 78.0862 24.6479 76.8622 26.1312L62.8548 43.0738C62.4206 43.5802 61.8051 43.8961 61.1405 43.9535C60.4758 44.0109 59.8152 43.8052 59.3006 43.3807C58.7861 42.9562 58.4586 42.3467 58.3886 41.6833C58.3186 41.0199 58.5117 40.3555 58.9264 39.833L72.9338 22.8904C76.2655 18.853 81.0646 16.3044 86.2753 15.8053C91.4861 15.3062 96.6817 16.8975 100.719 20.229L110.785 28.5061C111.101 28.7664 111.349 29.0989 111.509 29.4754C111.669 29.852 111.736 30.2615 111.704 30.6694C111.672 31.0773 111.543 31.4714 111.326 31.8186C111.11 32.1658 110.813 32.4556 110.461 32.6638ZM193.805 37.2862C193.016 37.7512 192.173 38.119 191.296 38.3813L151.719 52.325C150.864 52.6265 149.959 52.7566 149.054 52.7079C148.149 52.6592 147.263 52.4327 146.446 52.0412C145.628 51.6498 144.896 51.1011 144.291 50.4265C143.686 49.752 143.22 48.9648 142.92 48.1101L142.684 47.4734C142.566 47.1566 142.511 46.8194 142.525 46.4815C142.538 46.1435 142.618 45.8116 142.761 45.5051C142.904 45.1986 143.107 44.9237 143.357 44.6963C143.608 44.4689 143.901 44.2936 144.219 44.1807C144.538 44.0679 144.876 44.0196 145.214 44.0388C145.552 44.0579 145.882 44.1442 146.186 44.2924C146.49 44.4407 146.761 44.648 146.984 44.9023C147.207 45.1565 147.377 45.4527 147.485 45.7734L147.727 46.4483C147.805 46.6715 147.927 46.8772 148.085 47.0534C148.243 47.2296 148.434 47.3729 148.648 47.4752C148.861 47.5775 149.093 47.6367 149.329 47.6495C149.565 47.6623 149.802 47.6284 150.025 47.5498L189.666 33.5424L189.8 33.4978C190.555 33.2888 191.259 32.9296 191.872 32.4416C192.485 31.9537 192.993 31.3471 193.365 30.6582C193.687 30.0239 193.874 29.3296 193.913 28.6193C193.953 27.9091 193.844 27.1984 193.594 26.5324L190.958 19.2167V19.1467C190.712 18.4634 190.331 17.8362 189.839 17.3016C189.347 16.7671 188.754 16.3359 188.093 16.0332C187.249 15.6198 186.331 15.3777 185.392 15.3209C184.453 15.264 183.512 15.3936 182.624 15.7021L143.658 29.4484C143.207 29.6084 142.837 29.941 142.631 30.3731C142.424 30.8052 142.398 31.3015 142.557 31.7533L145.103 38.9671C145.215 39.2827 145.263 39.6172 145.245 39.9513C145.227 40.2855 145.143 40.6128 144.998 40.9146C144.854 41.2165 144.651 41.4869 144.402 41.7104C144.153 41.9339 143.862 42.1062 143.547 42.2174C143.231 42.3286 142.897 42.3766 142.563 42.3585C142.228 42.3405 141.901 42.2568 141.599 42.1122C141.297 41.9677 141.027 41.7651 140.803 41.516C140.58 41.267 140.408 40.9763 140.296 40.6607L137.75 33.4469C137.151 31.721 137.261 29.8282 138.054 28.1827C138.848 26.5373 140.26 25.2731 141.984 24.6668L180.95 10.9396C182.478 10.4092 184.097 10.1868 185.712 10.2851C187.327 10.3835 188.907 10.8007 190.36 11.5126C191.616 12.1067 192.741 12.9454 193.67 13.9796C194.598 15.0138 195.31 16.2228 195.766 17.5358L198.395 24.8769C198.874 26.1974 199.076 27.6021 198.99 29.004C198.903 30.4059 198.529 31.7751 197.892 33.0267C196.956 34.802 195.54 36.2782 193.805 37.2862Z" fill="#F1B436"/>
<path d="M134.343 58.813C116.427 69.3885 100.127 70.0634 88.8066 68.3634C73.876 66.1477 64.3511 59.5834 63.9754 59.3096C63.5877 59.0379 63.2835 58.6635 63.0967 58.2285C62.91 57.7935 62.8482 57.3151 62.9183 56.8469C62.9884 56.3787 63.1876 55.9393 63.4936 55.5781C63.7995 55.2168 64.2001 54.948 64.6503 54.8018L139.029 30.7218C139.667 30.5324 140.353 30.5998 140.941 30.9096C141.53 31.2194 141.974 31.7471 142.178 32.3798C142.383 33.0125 142.332 33.7001 142.036 34.2957C141.74 34.8913 141.223 35.3476 140.596 35.5671L71.7431 57.8515C77.4384 60.5978 83.5184 62.4613 89.7744 63.3781C108.239 66.0458 126.066 60.4111 142.824 46.6329C143.082 46.4188 143.38 46.2578 143.701 46.1592C144.021 46.0605 144.358 46.0262 144.692 46.0581C145.026 46.0899 145.35 46.1875 145.646 46.345C145.942 46.5025 146.204 46.717 146.417 46.9761C146.63 47.2352 146.79 47.5338 146.887 47.8547C146.984 48.1757 147.017 48.5127 146.984 48.8464C146.951 49.1801 146.852 49.504 146.693 49.7994C146.534 50.0948 146.319 50.3559 146.059 50.5677C142.372 53.6144 138.455 56.3711 134.343 58.813Z" fill="#F1B436"/>
<path d="M186.687 26.3137C186.907 24.9743 186 23.71 184.661 23.4898C183.321 23.2695 182.057 24.1766 181.837 25.516C181.616 26.8553 182.524 28.1196 183.863 28.3399C185.202 28.5602 186.467 27.653 186.687 26.3137Z" fill="#F1B436"/>
<path d="M185.661 28.3023C185.115 28.6219 184.476 28.7455 183.85 28.6524C183.225 28.5594 182.649 28.2554 182.22 27.7907C181.79 27.326 181.533 26.7285 181.489 26.0973C181.446 25.4661 181.619 24.8389 181.981 24.3198C182.343 23.8006 182.871 23.4206 183.478 23.2427C184.085 23.0647 184.735 23.0995 185.32 23.3413C185.904 23.5832 186.389 24.0175 186.693 24.5723C186.997 25.1271 187.103 25.7692 186.992 26.3922C186.922 26.7879 186.766 27.1637 186.536 27.4935C186.307 27.8232 186.008 28.0992 185.661 28.3023ZM183.165 24.0682C182.732 24.3235 182.402 24.7236 182.234 25.198C182.066 25.6724 182.071 26.1908 182.247 26.662C182.424 27.1333 182.761 27.5273 183.199 27.7747C183.637 28.0221 184.149 28.1071 184.643 28.0147C185.138 27.9224 185.584 27.6586 185.904 27.2698C186.223 26.8809 186.395 26.3919 186.39 25.8887C186.384 25.3855 186.202 24.9003 185.874 24.5185C185.546 24.1366 185.094 23.8825 184.598 23.8008C184.105 23.7224 183.6 23.8193 183.172 24.0746L183.165 24.0682ZM128.613 53.3563C122.087 57.1765 114.949 59.2267 109.372 60.2773C109.084 60.3316 108.789 60.3288 108.502 60.2689C108.216 60.209 107.944 60.0933 107.702 59.9284C107.46 59.7634 107.253 59.5525 107.093 59.3075C106.933 59.0626 106.822 58.7885 106.768 58.5009C106.714 58.2132 106.716 57.9177 106.776 57.6312C106.836 57.3447 106.952 57.0727 107.117 56.8309C107.282 56.5891 107.493 56.3822 107.738 56.2219C107.983 56.0616 108.257 55.9511 108.544 55.8968C115.93 54.5024 126.245 51.3125 133.452 44.0606C133.658 43.8515 133.903 43.6851 134.174 43.5709C134.444 43.4566 134.734 43.3968 135.028 43.3947C135.321 43.3926 135.613 43.4484 135.885 43.5588C136.157 43.6693 136.404 43.8322 136.613 44.0383C136.822 44.2444 136.989 44.4896 137.103 44.76C137.217 45.0304 137.277 45.3207 137.279 45.6143C137.281 45.9078 137.225 46.1989 137.115 46.4709C137.004 46.7429 136.842 46.9904 136.635 47.1995C134.235 49.5861 131.539 51.6553 128.613 53.3563ZM103.661 60.7293C103.364 60.9032 103.03 61.0056 102.687 61.0286L102.005 61.0668C101.414 61.0896 100.839 60.8766 100.405 60.4748C99.9705 60.073 99.7138 59.5153 99.691 58.9243C99.6682 58.3333 99.8812 57.7574 100.283 57.3233C100.685 56.8893 101.243 56.6327 101.834 56.6099L102.381 56.578C102.881 56.5456 103.378 56.6829 103.791 56.9677C104.204 57.2524 104.508 57.6681 104.655 58.1474C104.803 58.6267 104.784 59.1417 104.602 59.609C104.421 60.0764 104.087 60.4689 103.654 60.7229L103.661 60.7293ZM176.849 33.7397C176.849 33.7397 159.283 39.922 152.846 42.2078C152.289 42.4053 151.676 42.3734 151.142 42.1191C150.608 41.8648 150.197 41.4088 150 40.8516C149.802 40.2943 149.834 39.6814 150.088 39.1477C150.343 38.614 150.799 38.2031 151.356 38.0056C157.799 35.7198 175.366 29.5375 175.366 29.5375L176.849 33.7397ZM95.5047 106.247C92.2629 108.134 88.4572 108.81 84.7636 108.157C81.9912 107.596 79.3628 106.474 77.0405 104.859C73.4049 102.382 68.1649 96.5436 67.8975 91.3099C67.8804 90.9755 67.9293 90.6409 68.0414 90.3254C68.1536 90.0098 68.3268 89.7194 68.5512 89.4708C68.7755 89.2222 69.0467 89.0202 69.3491 88.8764C69.6515 88.7326 69.9793 88.6497 70.3138 88.6326C70.6482 88.6155 70.9828 88.6644 71.2983 88.7765C71.6139 88.8887 71.9042 89.0619 72.1529 89.2863C72.4015 89.5106 72.6035 89.7818 72.7473 90.0842C72.8911 90.3866 72.974 90.7144 72.9911 91.0489C73.1439 93.9459 76.7731 98.511 79.9184 100.657C81.613 101.83 83.5207 102.66 85.534 103.102C93.9512 104.432 97.6313 97.626 99.0384 93.4492C99.5118 91.9983 99.677 90.4645 99.5235 88.946C99.37 87.4275 98.9012 85.9578 98.147 84.631C97.5269 83.492 96.6694 82.4994 95.6324 81.7206C94.5955 80.9418 93.4033 80.3948 92.1366 80.1168C88.3992 79.3145 83.5348 80.5051 81.9049 84.2871C80.6315 87.2987 82.0895 91.2526 85.0247 92.5642C85.3712 92.681 85.738 92.726 86.1025 92.6964C86.467 92.6669 86.8217 92.5634 87.1449 92.3923C88.2535 91.9263 89.1372 91.0472 89.6089 89.941C89.6478 89.7196 89.6413 89.4925 89.5899 89.2736C89.5384 89.0548 89.4431 88.8486 89.3097 88.6676C89.1305 88.3609 88.8616 88.1165 88.5393 87.9673L88.4756 88.0309C88.0247 88.5375 87.3911 88.8442 86.7141 88.8837C86.037 88.9231 85.3721 88.6919 84.8655 88.241C84.3589 87.7902 84.0522 87.1565 84.0128 86.4795C83.9734 85.8025 84.2045 85.1376 84.6554 84.631C85.4463 83.7113 86.5394 83.104 87.7381 82.9184C88.9368 82.7329 90.1623 82.9811 91.1943 83.6186C93.601 85.0066 95.4665 88.3493 94.4287 91.5391C93.9772 92.7708 93.279 93.8974 92.3769 94.8499C91.4747 95.8024 90.3877 96.5607 89.1823 97.0784C88.2069 97.5482 87.1428 97.8054 86.0605 97.8328C84.9782 97.8602 83.9024 97.6573 82.9045 97.2376C77.4862 94.7863 74.8248 87.8017 77.1742 82.2879C79.9184 75.9209 87.285 73.8962 93.149 75.1569C95.1218 75.5844 96.9797 76.4311 98.5967 77.6395C100.214 78.8478 101.552 80.3897 102.521 82.1606C103.625 84.1158 104.308 86.2798 104.527 88.5142C104.746 90.7485 104.497 93.004 103.795 95.1365C102.088 100.268 99.1721 104.069 95.5047 106.247ZM131.835 99.6889C131.271 100.015 130.604 100.114 129.971 99.9638C129.337 99.8138 128.785 99.4266 128.428 98.882C128.071 98.3374 127.936 97.6768 128.051 97.0358C128.166 96.3948 128.522 95.8222 129.046 95.4357C131.077 93.9586 132.732 88.9605 132.803 85.6433C132.855 83.817 132.55 81.9979 131.905 80.2887C128.83 73.4251 122.01 74.0045 118.216 74.9659C116.92 75.3221 115.712 75.9413 114.666 76.7847C113.619 77.6281 112.758 78.6778 112.135 79.8685C111.59 80.8675 111.268 81.9727 111.191 83.1081C111.114 84.2435 111.284 85.3821 111.69 86.4455C112.912 89.629 116.21 92.5706 119.629 91.9848C121.015 91.6977 122.245 90.9079 123.084 89.7676C123.922 88.6273 124.308 87.2172 124.169 85.8088C124.091 85.5234 123.956 85.2567 123.772 85.0247C123.588 84.7928 123.359 84.6004 123.099 84.459C122.256 83.8875 121.227 83.6597 120.221 83.8224C119.935 83.9448 119.707 84.1728 119.585 84.459C119.458 84.6877 119.386 84.9427 119.375 85.204C120.04 85.3213 120.631 85.6982 121.019 86.2516C121.406 86.8051 121.558 87.4898 121.441 88.1551C121.323 88.8204 120.946 89.4118 120.393 89.7993C119.84 90.1868 119.155 90.3385 118.49 90.2212C117.346 90.0698 116.295 89.5151 115.524 88.6571C114.754 87.7992 114.315 86.6942 114.287 85.5414C114.141 82.9373 115.815 79.7538 118.872 78.9325C120.064 78.6557 121.301 78.6258 122.505 78.8448C123.71 79.0638 124.856 79.527 125.875 80.2059C126.742 80.7311 127.486 81.4349 128.059 82.2703C128.632 83.1058 129.021 84.0538 129.199 85.0512C130.033 90.4886 125.964 96.0788 120.489 97.0211C114.198 98.0971 108.914 93.4429 106.933 88.2856C106.265 86.5472 105.978 84.6852 106.094 82.8263C106.209 80.9673 106.724 79.155 107.602 77.5127C108.554 75.6815 109.877 74.0691 111.488 72.7787C113.098 71.4883 114.96 70.5482 116.955 70.0187C125.907 67.7585 133.229 70.8146 136.54 78.2003C137.496 80.5978 137.953 83.1651 137.883 85.7452C137.801 89.7691 135.929 96.7155 132.032 99.5488L131.835 99.6889ZM121.915 122.629C119.662 123.952 117.184 124.848 114.606 125.271C112.329 125.6 110.008 125.461 107.787 124.864C100.885 122.699 97.4021 116.53 98.4718 108.367C98.7335 106.539 99.3737 104.785 100.352 103.219C101.33 101.652 102.624 100.307 104.151 99.2686C105.516 98.3181 107.07 97.6711 108.706 97.3713C110.343 97.0714 112.024 97.1257 113.638 97.5305C118.439 98.7529 123.137 102.987 122.838 108.724C122.677 111.208 121.567 113.535 119.739 115.225C117.911 116.915 115.503 117.838 113.014 117.803C112.086 117.749 111.18 117.498 110.357 117.066C109.533 116.635 108.811 116.033 108.239 115.301C107.517 114.456 106.975 113.472 106.646 112.41C106.318 111.348 106.21 110.23 106.329 109.125C106.755 106.234 109.512 104.35 111.893 104.197C112.97 104.097 114.047 104.384 114.931 105.007C115.814 105.631 116.446 106.549 116.713 107.597C116.89 108.215 116.827 108.878 116.536 109.452C116.244 110.025 115.747 110.468 115.143 110.689C114.539 110.911 113.873 110.896 113.28 110.647C112.686 110.398 112.209 109.934 111.944 109.348C111.683 109.462 111.397 109.698 111.371 109.863C111.338 110.66 111.611 111.44 112.135 112.041C112.381 112.394 112.756 112.637 113.179 112.716C114.328 112.685 115.427 112.235 116.266 111.45C117.106 110.665 117.63 109.6 117.738 108.456C117.891 105.604 115.128 103.172 112.371 102.471C111.451 102.24 110.492 102.21 109.56 102.385C108.628 102.56 107.745 102.934 106.972 103.484C106.041 104.119 105.251 104.94 104.651 105.894C104.05 106.848 103.653 107.915 103.483 109.029C102.954 113.04 103.533 118.204 109.27 120.006C110.773 120.379 112.335 120.454 113.867 120.229C116.662 119.84 120.705 117.968 121.737 116.135C121.901 115.842 122.12 115.585 122.384 115.377C122.647 115.169 122.949 115.016 123.272 114.925C123.595 114.833 123.932 114.807 124.265 114.846C124.598 114.886 124.92 114.99 125.213 115.154C125.506 115.318 125.763 115.538 125.971 115.801C126.179 116.065 126.332 116.367 126.423 116.689C126.514 117.012 126.541 117.35 126.502 117.683C126.462 118.016 126.357 118.338 126.194 118.631C125.135 120.309 123.661 121.686 121.915 122.629Z" fill="#F1B436"/>
</g>
<defs>
<clipPath id="clip0_1_131">
<rect width="199" height="155" fill="white"/>
</clipPath>
</defs>
</svg>
